<svg width="110" height="105" viewBox="0 0 110 105" fill="none" xmlns="http://www.w3.org/2000/svg">
<path d="M90.1853 46.7806C90.1853 46.4847 90.2344 46.1889 90.2344 45.8931C90.2344 30.0413 77.2701 17 61.5558 17C50.2366 17 40.4888 23.8781 35.9219 33.5174C33.933 32.5066 31.7232 31.9396 29.3415 31.9396C22.0737 31.9396 16.058 37.7823 14.8795 44.759C6.23661 47.7667 0 55.6556 0 65.4181C0 77.6951 9.84598 88 22 88H89.8661C100.915 88 110 78.4101 110 67.2177C110 55.976 101.308 46.8052 90.1853 46.7806ZM89.7433 83.9569L88.9576 84.0556H22.1964C12.154 84.0556 3.97768 75.4517 3.97768 65.2948C3.97768 57.4306 8.9375 50.8976 16.3036 48.3337L18.3661 47.5941L18.7344 45.4247C19.6183 40.0997 24.1607 35.7361 29.5134 35.7361C31.2076 35.7361 32.8772 36.1306 34.3996 36.9194L37.7143 38.5958L39.3103 35.2184C43.3862 26.6146 52.1027 20.8705 61.5067 20.8705C75.0848 20.8705 86.2812 31.7424 86.2812 45.4493C86.2812 48.7281 86.2321 50.4538 86.2321 50.4538L89.9643 50.4785C98.9754 50.6017 106.071 57.9976 106.071 67.0944C106.071 76.1913 98.7545 83.9076 89.7433 83.9569Z" fill="white"/>
</svg>
