<svg width="110" height="110" viewBox="0 0 110 110" fill="none" xmlns="http://www.w3.org/2000/svg">
<path d="M55 27.0033C44.6258 27.0033 34.2555 25.8084 24.1886 23.4491C23.1682 23.2102 22.5348 22.1936 22.7737 21.1695C23.0127 20.1529 24.0065 19.5195 25.0572 19.7546C47.0306 24.9057 70.3848 24.2571 92.1117 17.8657C93.1358 17.5774 94.1751 18.1426 94.4672 19.1478C94.7631 20.1567 94.1903 21.2074 93.1851 21.5033C80.7779 25.1522 67.9306 27.0033 55 27.0033ZM92.6465 92.2446C92.4682 92.2446 92.2899 92.2181 92.1079 92.165C67.9875 85.0681 42.0124 85.0681 17.892 92.165C16.8717 92.4495 15.8286 91.8881 15.5365 90.8829C15.2406 89.874 15.8134 88.8233 16.8186 88.5274C41.6444 81.2219 68.3593 81.2219 93.1851 88.5274C94.1903 88.8233 94.7631 89.874 94.4672 90.8829C94.2244 91.7136 93.4658 92.2446 92.6465 92.2446Z" fill="white"/>
<path d="M52.6824 108.468C52.3107 108.468 51.9428 108.361 51.6128 108.138C33.9104 96.0566 23.3428 76.1921 23.3428 55.0001C23.3428 37.8287 30.0983 21.6663 42.3728 9.49043C43.12 8.74319 44.3224 8.75836 45.0545 9.49801C45.7942 10.2415 45.7866 11.4439 45.0469 12.1797C33.4969 23.6387 27.1359 38.8453 27.1359 55.0001C27.1359 74.9366 37.0852 93.6328 53.7559 105.005C54.6207 105.592 54.8407 106.776 54.2528 107.641C53.8811 108.179 53.2855 108.468 52.6824 108.468ZM57.4807 108.468C56.8776 108.468 56.2821 108.179 55.9142 107.641C55.3262 106.772 55.5462 105.592 56.4111 105.005C73.0817 93.6328 83.0311 74.9366 83.0311 55.0001C83.0311 35.0635 73.0817 16.3673 56.4111 4.9956C55.5462 4.40767 55.3262 3.22422 55.9142 2.35939C56.5059 1.49456 57.6893 1.28215 58.5504 1.8625C76.2528 13.9435 86.8204 33.808 86.8204 55.0001C86.8204 76.1921 76.2528 96.0566 58.5504 108.138C58.2242 108.358 57.8524 108.468 57.4807 108.468Z" fill="white"/>
<path d="M55.0001 107.902C53.9532 107.902 53.1035 107.053 53.1035 106.006V3.99421C53.1035 2.94731 53.9532 2.09766 55.0001 2.09766C56.047 2.09766 56.8966 2.94731 56.8966 3.99421V106.006C56.8966 107.057 56.047 107.902 55.0001 107.902Z" fill="white"/>
<path d="M107.902 56.8964H9.68378C8.63689 56.8964 7.78723 56.0467 7.78723 54.9998C7.78723 53.9529 8.63689 53.1033 9.68378 53.1033H107.906C108.953 53.1033 109.803 53.9529 109.803 54.9998C109.803 56.0467 108.953 56.8964 107.902 56.8964Z" fill="white"/>
<path d="M55 110C24.6741 110 0 85.3259 0 55C0 41.6445 4.84759 28.7555 13.6552 18.719C14.3455 17.93 15.5403 17.8541 16.3331 18.5445C17.1183 19.2348 17.1941 20.4334 16.5076 21.2224C8.31069 30.5648 3.7931 42.5624 3.7931 55C3.7931 83.2359 26.7641 106.207 55 106.207C83.2359 106.207 106.207 83.2359 106.207 55C106.207 26.7641 83.2359 3.7931 55 3.7931C43.3248 3.7931 32.3324 7.61655 23.2176 14.85C22.3983 15.5024 21.2072 15.3697 20.5548 14.5428C19.9024 13.7234 20.039 12.5324 20.8621 11.88C30.6521 4.10793 42.4562 0 55 0C85.3259 0 110 24.6741 110 55C110 85.3259 85.3259 110 55 110Z" fill="white"/>
</svg>
