<svg width="110" height="114" viewBox="0 0 110 114" fill="none" xmlns="http://www.w3.org/2000/svg">
<path d="M7.34276 109.798H102.516L68.115 78.2859H40.5144L7.34276 109.798ZM72.0774 76.2316L105.823 107.144V47.1387L72.0774 76.2316ZM4.17722 107.023L36.5914 76.2302L4.17722 47.2495V107.023ZM21.5823 57.1901L40.4763 74.0843H68.1517L86.3672 58.3773L87.0253 42.5171V20.163H21.5823V57.1901ZM90.7049 54.6393L102.266 44.6727H91.1182L90.7049 54.6393ZM17.4051 53.4549V44.6727H7.58072L17.4051 53.4549ZM91.2025 40.471H100.849L91.2025 34.1809V40.471ZM8.71341 40.471H17.4051V34.3505L8.71341 40.471ZM42.6016 15.9614H70.0295L55.1115 5.31225L42.6016 15.9614ZM110 114H0V41.4777L17.4051 29.2228V15.9614H36.1332L54.8871 0L77.2486 15.9614H91.2025V29.175L110 41.4298V114Z" fill="white"/>
</svg>
