<svg width="110" height="110" viewBox="0 0 110 110" fill="none" xmlns="http://www.w3.org/2000/svg">
<g clip-path="url(#clip0_1293_5014)">
<path d="M103.529 1.94116H6.47057C3.96905 1.94116 1.94116 3.96905 1.94116 6.47057V28.4706C1.94116 30.9721 3.96905 33 6.47057 33H103.529C106.031 33 108.059 30.9721 108.059 28.4706V6.47057C108.059 3.96905 106.031 1.94116 103.529 1.94116Z" stroke="white" stroke-width="3"/>
<path d="M24.5882 22.647V26.5294H19.4118V22.647H24.5882ZM27.1765 20.0588V14.8823C27.1765 13.4528 26.0177 12.2941 24.5882 12.2941H19.4118C17.9823 12.2941 16.8235 13.4528 16.8235 14.8823V20.0588C16.8235 21.4883 17.9823 22.647 19.4118 22.647V26.5294C15.9496 26.5294 13.123 23.8103 12.95 20.3911L12.9412 20.0588V14.8823C12.9412 11.3087 15.8382 8.41174 19.4118 8.41174H24.5882L24.9206 8.4206C28.3397 8.59361 31.0588 11.4202 31.0588 14.8823V20.0588L31.05 20.3911C30.8826 23.7002 28.2296 26.3531 24.9206 26.5206L24.5882 26.5294V22.647C26.0177 22.647 27.1765 21.4883 27.1765 20.0588Z" fill="white"/>
<path d="M91.8825 18.7647V22.647H68.5883V18.7647H91.8825ZM93.1766 17.4705C93.1766 16.7558 92.5972 16.1764 91.8825 16.1764H68.5883C67.8736 16.1764 67.2942 16.7558 67.2942 17.4705C67.2942 18.1853 67.8736 18.7647 68.5883 18.7647V22.647L68.3216 22.6407C65.5868 22.5019 63.4119 20.24 63.4119 17.4705C63.4119 14.6117 65.7295 12.2941 68.5883 12.2941H91.8825C94.7413 12.2941 97.0589 14.6117 97.0589 17.4705C97.0589 20.24 94.884 22.5019 92.1492 22.6407L91.8825 22.647V18.7647C92.5972 18.7647 93.1766 18.1853 93.1766 17.4705Z" fill="white"/>
<path d="M103.529 39.4706H6.47057C3.96905 39.4706 1.94116 41.4985 1.94116 44V66C1.94116 68.5015 3.96905 70.5294 6.47057 70.5294H103.529C106.031 70.5294 108.059 68.5015 108.059 66V44C108.059 41.4985 106.031 39.4706 103.529 39.4706Z" stroke="white" stroke-width="3"/>
<path d="M24.5882 60.1765V64.0588H19.4118V60.1765H24.5882ZM27.1765 57.5882V52.4118C27.1765 50.9823 26.0177 49.8235 24.5882 49.8235H19.4118C17.9823 49.8235 16.8235 50.9823 16.8235 52.4118V57.5882C16.8235 59.0177 17.9823 60.1765 19.4118 60.1765V64.0588C15.9496 64.0588 13.123 61.3397 12.95 57.9206L12.9412 57.5882V52.4118C12.9412 48.8382 15.8382 45.9412 19.4118 45.9412H24.5882L24.9206 45.95C28.3397 46.123 31.0588 48.9496 31.0588 52.4118V57.5882L31.05 57.9206C30.8826 61.2296 28.2296 63.8825 24.9206 64.05L24.5882 64.0588V60.1765C26.0177 60.1765 27.1765 59.0177 27.1765 57.5882Z" fill="white"/>
<path d="M91.8825 56.2941V60.1764H68.5883V56.2941H91.8825ZM93.1766 55C93.1766 54.2852 92.5972 53.7058 91.8825 53.7058H68.5883C67.8736 53.7058 67.2942 54.2852 67.2942 55C67.2942 55.7147 67.8736 56.2941 68.5883 56.2941V60.1764L68.3216 60.1701C65.5868 60.0314 63.4119 57.7694 63.4119 55C63.4119 52.1411 65.7295 49.8235 68.5883 49.8235H91.8825C94.7413 49.8235 97.0589 52.1411 97.0589 55C97.0589 57.7694 94.884 60.0314 92.1492 60.1701L91.8825 60.1764V56.2941C92.5972 56.2941 93.1766 55.7147 93.1766 55Z" fill="white"/>
<path d="M103.529 77H6.47057C3.96905 77 1.94116 79.0279 1.94116 81.5294V103.529C1.94116 106.031 3.96905 108.059 6.47057 108.059H103.529C106.031 108.059 108.059 106.031 108.059 103.529V81.5294C108.059 79.0279 106.031 77 103.529 77Z" stroke="white" stroke-width="3"/>
<path d="M24.5882 97.7059V101.588H19.4118V97.7059H24.5882ZM27.1765 95.1176V89.9412C27.1765 88.5117 26.0177 87.3529 24.5882 87.3529H19.4118C17.9823 87.3529 16.8235 88.5117 16.8235 89.9412V95.1176C16.8235 96.5471 17.9823 97.7059 19.4118 97.7059V101.588C15.9496 101.588 13.123 98.8692 12.95 95.45L12.9412 95.1176V89.9412C12.9412 86.3676 15.8382 83.4706 19.4118 83.4706H24.5882L24.9206 83.4794C28.3397 83.6524 31.0588 86.479 31.0588 89.9412V95.1176L31.05 95.45C30.8826 98.759 28.2296 101.412 24.9206 101.579L24.5882 101.588V97.7059C26.0177 97.7059 27.1765 96.5471 27.1765 95.1176Z" fill="white"/>
<path d="M91.8825 93.8235V97.7058H68.5883V93.8235H91.8825ZM93.1766 92.5294C93.1766 91.8146 92.5972 91.2353 91.8825 91.2353H68.5883C67.8736 91.2353 67.2942 91.8146 67.2942 92.5294C67.2942 93.2441 67.8736 93.8235 68.5883 93.8235V97.7058L68.3216 97.6995C65.5868 97.5608 63.4119 95.2988 63.4119 92.5294C63.4119 89.6705 65.7295 87.3529 68.5883 87.3529H91.8825C94.7413 87.3529 97.0589 89.6705 97.0589 92.5294C97.0589 95.2988 94.884 97.5608 92.1492 97.6995L91.8825 97.7058V93.8235C92.5972 93.8235 93.1766 93.2441 93.1766 92.5294Z" fill="white"/>
</g>
<defs>
<clipPath id="clip0_1293_5014">
<rect width="110" height="110" fill="white"/>
</clipPath>
</defs>
</svg>
